<svg xmlns="http://www.w3.org/2000/svg" width="40" height="40" fill="none" viewBox="0 0 40 40"><path fill="#ff5722" fill-rule="evenodd" d="M21.701 9.275a9.84 9.84 0 0 0-6.943 2.867 9.8 9.8 0 0 0-2.808 5.776c-.083.7-.467 1.347-1.098 1.662l-1.867.931c-.632.315-1.046.962-.963 1.663a9.77 9.77 0 0 0 2.808 5.775 9.82 9.82 0 0 0 6.943 2.868 9.84 9.84 0 0 0 6.944-2.868 9.8 9.8 0 0 0 2.808-5.776c.083-.7.467-1.347 1.098-1.662l1.867-.93c.631-.316 1.046-.963.963-1.663a9.77 9.77 0 0 0-2.809-5.775 9.82 9.82 0 0 0-6.943-2.868m4.536 7.918q.149.358.239.733c.164.686-.264 1.34-.896 1.654l-1.867.931c-.631.315-1 .969-1.165 1.655a4.9 4.9 0 0 1-2.896 3.382 4.92 4.92 0 0 1-5.35-1.061 4.9 4.9 0 0 1-1.303-2.321c-.165-.686.264-1.34.895-1.655l1.867-.93c.632-.316 1-.97 1.166-1.655a4.9 4.9 0 0 1 2.895-3.383 4.92 4.92 0 0 1 5.35 1.062c.457.454.818.994 1.065 1.588" clip-rule="evenodd"/><path fill="#ff5722" fill-rule="evenodd" d="M21.701 1.441c-2.32 0-4.62.456-6.764 1.342a17.7 17.7 0 0 0-5.734 3.82 17.62 17.62 0 0 0-5.139 11.313c-.046.704-.436 1.35-1.068 1.664l-1.867.931c-.631.315-1.038.96-.992 1.664a17.59 17.59 0 0 0 5.139 11.313 17.7 17.7 0 0 0 5.734 3.82 17.72 17.72 0 0 0 19.261-3.82 17.62 17.62 0 0 0 5.14-11.313c.045-.704.436-1.35 1.067-1.664l1.867-.93c.632-.316 1.039-.961.993-1.665a17.6 17.6 0 0 0-5.14-11.313 17.7 17.7 0 0 0-5.733-3.82A17.7 17.7 0 0 0 21.7 1.44m8.785 20.734c.064-.703.451-1.35 1.083-1.664l1.867-.93c.631-.316 1.042-.962.978-1.664a12.7 12.7 0 0 0-3.687-7.852 12.77 12.77 0 0 0-9.026-3.728 12.8 12.8 0 0 0-9.026 3.728 12.73 12.73 0 0 0-3.687 7.852c-.063.702-.45 1.348-1.082 1.663l-1.867.931c-.631.315-1.042.961-.978 1.663a12.7 12.7 0 0 0 3.686 7.852 12.77 12.77 0 0 0 9.026 3.728 12.8 12.8 0 0 0 9.027-3.728 12.73 12.73 0 0 0 3.686-7.852" clip-rule="evenodd"/><path fill="#b92b09" d="M39.37 18.668h-4.91a.67.67 0 0 1-.375.589l-3.165 1.578a.71.71 0 0 0-.387.589h4.911a.7.7 0 0 1 .386-.59l3.164-1.577a.67.67 0 0 0 .377-.59M.104 21.424h4.912a.67.67 0 0 1 .374-.59l3.165-1.577a.71.71 0 0 0 .387-.59H4.031a.7.7 0 0 1-.386.59L.481 20.835a.67.67 0 0 0-.377.589M11.89 18.668a.72.72 0 0 1-.39.589l-3.164 1.578a.66.66 0 0 0-.373.589h4.918a.64.64 0 0 1 .365-.59l3.164-1.577a.75.75 0 0 0 .397-.59zM26.594 18.668a.64.64 0 0 1-.365.589l-3.164 1.578a.75.75 0 0 0-.398.589h4.918a.72.72 0 0 1 .39-.59l3.164-1.577a.66.66 0 0 0 .373-.59z"/></svg>