<svg xmlns="http://www.w3.org/2000/svg" width="408" height="272" fill="none" viewBox="0 0 408 272"><g clip-path="url(#a)"><path stroke="url(#b)" d="M-155.118-230H-203v46.035M-155.118-230v46.035m0-46.035h47.883M-203-183.965h47.882m-47.882 0v46.036m47.882-46.036h47.883m-47.883 0v46.036M-107.235-230v46.035m0-46.035h47.882m-47.882 46.035h47.882m-47.882 0v46.036m-47.883 0H-203m47.882 0h47.883m-47.883 0v46.035M-203-137.93v46.035M-59.353-230v46.035m0-46.035h47.883m-47.883 46.035h47.883m-47.883 0v46.036m-47.882 0h47.882m-47.882 0v46.035M-11.47-230v46.035m0-46.035h47.882m-47.882 46.035h47.882m-47.882 0v46.036m-47.883 0h47.883m-47.883 0v46.035M36.412-230v46.035m0-46.035h47.883m-47.883 46.035h47.883m-47.883 0v46.036m-47.882 0h47.882m-47.882 0v46.035M84.295-230v46.035m0-46.035h47.882m-47.882 46.035h47.882m-47.882 0v46.036m-47.883 0h47.883m-47.883 0v46.035M132.177-230v46.035m0-46.035h47.882m-47.882 46.035h47.882m-47.882 0v46.036m-47.882 0h47.882m-47.882 0v46.035M180.059-230v46.035m0-46.035h47.883m-47.883 46.035h47.883m-47.883 0v46.036m-47.882 0h47.882m-47.882 0v46.035M227.942-230v46.035m0-46.035h47.883m-47.883 46.035h47.883m-47.883 0v46.036m-47.883 0h47.883m-47.883 0v46.035M275.825-230v46.035m0-46.035h47.882m-47.882 46.035h47.882m-47.882 0v46.036m-47.883 0h47.883m-47.883 0v46.035M323.707-230v46.035m0-46.035h47.882m-47.882 46.035h47.882m-47.882 0v46.036m-47.882 0h47.882m-47.882 0v46.035M371.589-230v46.035m0-46.035h47.884m-47.884 46.035h47.884m-47.884 0v46.036m-47.882 0h47.882m-47.882 0v46.035M419.473-230v46.035m0-46.035h47.88m-47.88 46.035h47.88m-47.88 0v46.036m-47.884 0h47.884m-47.884 0v46.035M467.353-230v46.035m0-46.035h47.884m-47.884 46.035h47.884m-47.884 0v46.036m-47.88 0h47.88m-47.88 0v46.035M515.237-230v46.035m0-46.035h47.884m-47.884 46.035h47.884m-47.884 0v46.036m-47.884 0h47.884m-47.884 0v46.035M563.121-230v46.035m0-46.035H611v46.035m-47.879 0H611m-47.879 0v46.036m-47.884 0h47.884m-47.884 0v46.035M611-183.965v46.036m-47.879 0H611m-47.879 0v46.035M611-137.93v46.035m-766.118 0H-203m47.882 0h47.883m-47.883 0v46.035M-203-91.894v46.035m95.765-46.035h47.882m-47.882 0v46.035m47.882-46.035h47.883m-47.883 0v46.035m47.883-46.035h47.882m-47.882 0v46.035m47.882-46.035h47.883m-47.883 0v46.035m47.883-46.035h47.882m-47.882 0v46.035m47.882-46.035h47.882m-47.882 0v46.035m47.882-46.035h47.883m-47.883 0v46.035m47.883-46.035h47.883m-47.883 0v46.035m47.883-46.035h47.882m-47.882 0v46.035m47.882-46.035h47.882m-47.882 0v46.035m47.882-46.035h47.884m-47.884 0v46.035m47.884-46.035h47.88m-47.88 0v46.035m47.88-46.035h47.884m-47.884 0v46.035m47.884-46.035h47.884m-47.884 0v46.035m47.884-46.035H611m-47.879 0v46.035M611-91.894v46.035m-766.118 0H-203m47.882 0h47.883m-47.883 0V.176M-203-45.859V.176m95.765-46.035h47.882m-47.882 0V.176m47.882-46.035h47.883m-47.883 0V.176m47.883-46.035h47.882m-47.882 0V.176m47.882-46.035h47.883m-47.883 0V.176m47.883-46.035h47.882m-47.882 0V.176m47.882-46.035h47.882m-47.882 0V.176m47.882-46.035h47.883m-47.883 0V.176m47.883-46.035h47.883m-47.883 0V.176m47.883-46.035h47.882m-47.882 0V.176m47.882-46.035h47.882m-47.882 0V.176m47.882-46.035h47.884m-47.884 0V.176m47.884-46.035h47.88m-47.88 0V.176m47.88-46.035h47.884m-47.884 0V.176m47.884-46.035h47.884m-47.884 0V.176m47.884-46.035H611m-47.879 0V.176M611-45.859V.176m-766.118 0H-203m47.882 0h47.883m-47.883 0v46.035M-203 .176v46.035M-107.235.176h47.882m-47.882 0v46.035M-59.353.176h47.883m-47.883 0v46.035M-11.47.176h47.882m-47.882 0v46.035M36.412.176h47.883m-47.883 0v46.035M84.295.176h47.882m-47.882 0v46.035M132.177.176h47.882m-47.882 0v46.035M180.059.176h47.883m-47.883 0v46.035M227.942.176h47.883m-47.883 0v46.035M275.825.176h47.882m-47.882 0v46.035M323.707.176h47.882m-47.882 0v46.035M371.589.176h47.884m-47.884 0v46.035M419.473.176h47.88m-47.88 0v46.035M467.353.176h47.884m-47.884 0v46.035M515.237.176h47.884m-47.884 0v46.035M563.121.176H611m-47.879 0v46.035M611 .176v46.035m-766.118 0H-203m47.882 0h47.883m-47.883 0v46.035M-203 46.211v46.035m95.765-46.035h47.882m-47.882 0v46.035m47.882-46.035h47.883m-47.883 0v46.035m47.883-46.035h47.882m-47.882 0v46.035m47.882-46.035h47.883m-47.883 0v46.035m47.883-46.035h47.882m-47.882 0v46.035m47.882-46.035h47.882m-47.882 0v46.035m47.882-46.035h47.883m-47.883 0v46.035m47.883-46.035h47.883m-47.883 0v46.035m47.883-46.035h47.882m-47.882 0v46.035m47.882-46.035h47.882m-47.882 0v46.035m47.882-46.035h47.884m-47.884 0v46.035m47.884-46.035h47.88m-47.88 0v46.035m47.88-46.035h47.884m-47.884 0v46.035m47.884-46.035h47.884m-47.884 0v46.035m47.884-46.035H611m-47.879 0v46.035M611 46.211v46.035m-766.118 0H-203m47.882 0h47.883m-47.883 0v46.035M-203 92.246v46.035m95.765-46.035h47.882m-47.882 0v46.035m47.882-46.035h47.883m-47.883 0v46.035m47.883-46.035h47.882m-47.882 0v46.035m47.882-46.035h47.883m-47.883 0v46.035m47.883-46.035h47.882m-47.882 0v46.035m47.882-46.035h47.882m-47.882 0v46.035m47.882-46.035h47.883m-47.883 0v46.035m47.883-46.035h47.883m-47.883 0v46.035m47.883-46.035h47.882m-47.882 0v46.035m47.882-46.035h47.882m-47.882 0v46.035m47.882-46.035h47.884m-47.884 0v46.035m47.884-46.035h47.88m-47.88 0v46.035m47.88-46.035h47.884m-47.884 0v46.035m47.884-46.035h47.884m-47.884 0v46.035m47.884-46.035H611m-47.879 0v46.035M611 92.246v46.035m-766.118 0H-203m47.882 0h47.883m-47.883 0v46.036M-203 138.281v46.036m95.765-46.036h47.882m-47.882 0v46.036m47.882-46.036h47.883m-47.883 0v46.036m47.883-46.036h47.882m-47.882 0v46.036m47.882-46.036h47.883m-47.883 0v46.036m47.883-46.036h47.882m-47.882 0v46.036m47.882-46.036h47.882m-47.882 0v46.036m47.882-46.036h47.883m-47.883 0v46.036m47.883-46.036h47.883m-47.883 0v46.036m47.883-46.036h47.882m-47.882 0v46.036m47.882-46.036h47.882m-47.882 0v46.036m47.882-46.036h47.884m-47.884 0v46.036m47.884-46.036h47.88m-47.88 0v46.036m47.88-46.036h47.884m-47.884 0v46.036m47.884-46.036h47.884m-47.884 0v46.036m47.884-46.036H611m-47.879 0v46.036M611 138.281v46.036m-766.118 0H-203m47.882 0h47.883m-47.883 0v46.035M-203 184.317v46.035m95.765-46.035h47.882m-47.882 0v46.035m47.882-46.035h47.883m-47.883 0v46.035m47.883-46.035h47.882m-47.882 0v46.035m47.882-46.035h47.883m-47.883 0v46.035m47.883-46.035h47.882m-47.882 0v46.035m47.882-46.035h47.882m-47.882 0v46.035m47.882-46.035h47.883m-47.883 0v46.035m47.883-46.035h47.883m-47.883 0v46.035m47.883-46.035h47.882m-47.882 0v46.035m47.882-46.035h47.882m-47.882 0v46.035m47.882-46.035h47.884m-47.884 0v46.035m47.884-46.035h47.88m-47.88 0v46.035m47.88-46.035h47.884m-47.884 0v46.035m47.884-46.035h47.884m-47.884 0v46.035m47.884-46.035H611m-47.879 0v46.035M611 184.317v46.035m-766.118 0H-203m47.882 0h47.883m-47.883 0v46.035M-203 230.352v46.035m95.765-46.035h47.882m-47.882 0v46.035m47.882-46.035h47.883m-47.883 0v46.035m47.883-46.035h47.882m-47.882 0v46.035m47.882-46.035h47.883m-47.883 0v46.035m47.883-46.035h47.882m-47.882 0v46.035m47.882-46.035h47.882m-47.882 0v46.035m47.882-46.035h47.883m-47.883 0v46.035m47.883-46.035h47.883m-47.883 0v46.035m47.883-46.035h47.882m-47.882 0v46.035m47.882-46.035h47.882m-47.882 0v46.035m47.882-46.035h47.884m-47.884 0v46.035m47.884-46.035h47.88m-47.88 0v46.035m47.88-46.035h47.884m-47.884 0v46.035m47.884-46.035h47.884m-47.884 0v46.035m47.884-46.035H611m-47.879 0v46.035M611 230.352v46.035m-766.118 0H-203m47.882 0h47.883m-47.883 0v46.035M-203 276.387v46.035h47.882m47.883-46.035h47.882m-47.882 0v46.035m47.882-46.035h47.883m-47.883 0v46.035m47.883-46.035h47.882m-47.882 0v46.035m47.882-46.035h47.883m-47.883 0v46.035m47.883-46.035h47.882m-47.882 0v46.035m47.882-46.035h47.882m-47.882 0v46.035m47.882-46.035h47.883m-47.883 0v46.035m47.883-46.035h47.883m-47.883 0v46.035m47.883-46.035h47.882m-47.882 0v46.035m47.882-46.035h47.882m-47.882 0v46.035m47.882-46.035h47.884m-47.884 0v46.035m47.884-46.035h47.88m-47.88 0v46.035m47.88-46.035h47.884m-47.884 0v46.035m47.884-46.035h47.884m-47.884 0v46.035m47.884-46.035H611m-47.879 0v46.035M611 276.387v46.035h-47.879m-718.239 0h47.883m0 0h47.882m0 0h47.883m0 0h47.882m0 0h47.883m0 0h47.882m0 0h47.882m0 0h47.883m0 0h47.883m0 0h47.882m0 0h47.882m0 0h47.884m0 0h47.88m0 0h47.884m0 0h47.884" opacity=".03"/></g><defs><radialGradient id="b" cx="0" cy="0" r="1" gradientTransform="matrix(0 288.558 -425.194 0 204 33.864)" gradientUnits="userSpaceOnUse"><stop stop-color="#fff"/><stop offset="1" stop-color="#101010"/></radialGradient><clipPath id="a"><path fill="#fff" d="M0 0h408v272H0z"/></clipPath></defs></svg>