<svg xmlns="http://www.w3.org/2000/svg" xmlns:xlink="http://www.w3.org/1999/xlink" viewBox="0,0,256,256" width="24px" height="24px" fill-rule="nonzero"><g fill="#ffffff" fill-rule="nonzero" stroke="none" stroke-width="1" stroke-linecap="butt" stroke-linejoin="miter" stroke-miterlimit="10" stroke-dasharray="" stroke-dashoffset="0" font-family="none" font-weight="none" font-size="none" text-anchor="none" style="mix-blend-mode: normal"><g transform="scale(10.66667,10.66667)"><path d="M10,2c-4.40347,0 -8,3.59653 -8,8c0,4.40347 3.59653,8 8,8c1.75213,0 3.37052,-0.57793 4.69141,-1.54102l5.5332,5.5332l1.76758,-1.76758l-5.5332,-5.5332c0.96309,-1.32088 1.54102,-2.93928 1.54102,-4.69141c0,-4.40347 -3.59653,-8 -8,-8zM10,4.5c3.05237,0 5.5,2.44763 5.5,5.5c0,3.05237 -2.44763,5.5 -5.5,5.5c-3.05237,0 -5.5,-2.44763 -5.5,-5.5c0,-3.05237 2.44763,-5.5 5.5,-5.5z"></path></g></g></svg>